<?xml version="1.0" encoding="UTF-8"?>
<svg id="Capa_1" xmlns="http://www.w3.org/2000/svg" version="1.1" viewBox="0 0 37.2 32">
  <!-- Generator: Adobe Illustrator 30.2.1, SVG Export Plug-In . SVG Version: 2.1.1 Build 1)  -->
  <defs>
    <style>
      .st0 {
        fill: #ff0028;
      }
    </style>
  </defs>
  <polygon class="st0" points="34.2 1.7 18.6 7.4 3 1.7 6.9 .3 18.6 4.6 30.3 .3 34.2 1.7"/>
  <path class="st0" d="M28,9.7l-9.5,3.4L3.1,7.4c2,10.3,8.8,18.7,18.6,22.7-.8.5-2.2,1.2-3,1.6-5.2-2.6-9.2-5.4-13.1-11.2S.5,10.7,0,3.5l18.6,6.7s13.1-4.8,13.1-4.8v.5c-1.1,6.6-3.8,11.7-8.4,16.1-3.3-1.8-4.1-2.5-5.4-3.5l-5.4-2c2.8,3.6,5.7,6.5,11.3,8.6,6-5.1,9.7-12.4,10.6-20.6l2.7-1c0,.8-.1,2.4-.2,3.1-1.2,9-5.7,16.2-12.5,21.5-7.9-2.4-14.5-8.5-17.5-16.4l12.5,4.5c1.5,1.4,3.4,2.5,3.4,2.5,4.2-4.7,5.2-9.1,5.2-9.1Z"/>
</svg>