<?xml version="1.0" encoding="UTF-8"?>
<svg id="Capa_1" xmlns="http://www.w3.org/2000/svg" version="1.1" viewBox="0 0 254 32">
  <!-- Generator: Adobe Illustrator 30.2.1, SVG Export Plug-In . SVG Version: 2.1.1 Build 1)  -->
  <defs>
    <style>
      .st0 {
        fill: #fff;
      }

      .st1 {
        fill: #bff747;
      }
    </style>
  </defs>
  <g>
    <polygon class="st1" points="33.9 1.7 18.4 7.4 3 1.7 6.8 .3 18.4 4.6 30 .3 33.9 1.7"/>
    <path class="st1" d="M27.8,9.6l-9.4,3.4L3,7.4c2,10.2,8.7,18.6,18.4,22.5-.8.5-2.2,1.1-3,1.6-5.1-2.6-9.1-5.4-13-11.1S.5,10.7,0,3.5l18.4,6.7s13-4.7,13-4.7v.5c-1.1,6.5-3.8,11.6-8.3,16-3.3-1.8-4.1-2.5-5.3-3.5l-5.3-2c2.7,3.6,5.6,6.4,11.2,8.5,5.9-5.1,9.6-12.3,10.5-20.4l2.7-1c0,.8-.1,2.3-.2,3.1-1.2,8.9-5.6,16-12.4,21.3-7.8-2.4-14.3-8.5-17.3-16.3l12.3,4.5c1.5,1.4,3.4,2.5,3.4,2.5,4.2-4.7,5.2-9,5.2-9Z"/>
  </g>
  <g>
    <path class="st0" d="M44.1,21.9h3.5c1,0,1.8-.8,1.8-1.8V7.4h3.7v12.7c0,3.7-1.8,5.5-5.4,5.5h-3.6v-3.6Z"/>
    <path class="st0" d="M66.2,25.5v-7.3h-5.4v7.3h-3.6V7.4h3.6v7.3h5.4v-7.3h3.6v18.2h-3.6Z"/>
    <path class="st0" d="M82.7,7.1c12.5,0,12.5,18.7,0,18.7s-12.5-18.7,0-18.7ZM82.7,10.8c-7.3,0-7.3,11.2,0,11.2s7.3-11.2,0-11.2Z"/>
    <path class="st0" d="M99.1,25.5h-3.6V7h1l9.2,10.7V7.4h3.7v18.5h-1l-9.2-10.3v9.9Z"/>
    <path class="st0" d="M124.2,11v3.6h4.6v3.6h-4.6v7.3h-3.6V7.4h9.1v3.6h-5.4Z"/>
    <path class="st0" d="M141.7,25.5l-3.7-6.9h-1.8v6.9h-3.6V7.4h7.2c6.5,0,7.1,9.1,1.8,10.7l4.2,7.5h-4.1ZM136.3,15.1h3.2c2.5,0,2.5-4.1,0-4.1h-3.2v4.1Z"/>
    <path class="st0" d="M154.2,6.7h.4l7.6,18.8h-4.1l-.7-2h-6l-.7,2h-4.1l7.6-18.8ZM156.1,20.2l-1.7-4.7-1.7,4.7h3.4Z"/>
    <path class="st0" d="M172.6,25.6c-12,0-12.6-18,0-18.4,2.2,0,3.9.6,4.2.7l-.4,3.7c-.7-.3-1.9-.7-3.8-.7-7.3.3-7,11.1,0,11.1s.7,0,1-.1v-5.5h3.7v8c-1.4.8-3,1.2-4.7,1.2Z"/>
    <path class="st0" d="M190.1,7.1c12.5,0,12.5,18.7,0,18.7s-12.5-18.7,0-18.7ZM190.1,10.8c-7.3,0-7.3,11.2,0,11.2s7.3-11.2,0-11.2Z"/>
    <path class="st0" d="M201.4,25.5c2.2-4.9,4.4-9.8,6.6-14.6h-5.6v-3.5h11c-2.2,4.9-4.4,9.7-6.6,14.5h6.8v3.7h-12.2Z"/>
    <path class="st0" d="M225.2,7.1c12.5,0,12.5,18.7,0,18.7s-12.5-18.7,0-18.7ZM225.2,10.8c-7.3,0-7.3,11.2,0,11.2s7.3-11.2,0-11.2Z"/>
  </g>
</svg>